<svg xmlns="http://www.w3.org/2000/svg" xmlns:xlink="http://www.w3.org/1999/xlink" viewBox="0 0 388.61 194.13"><defs><style>.cls-1{opacity:0.31;}.cls-2{fill:#baac9e;}.cls-3{fill:#fbb;}.cls-4{mask:url(#mask);}.cls-5{fill:#fff;}.cls-6{filter:url(#luminosity-noclip);}</style><filter id="luminosity-noclip" x="135.42" y="134.11" width="386.44" height="375.11" filterUnits="userSpaceOnUse" color-interpolation-filters="sRGB"><feFlood flood-color="#fff" result="bg"/><feBlend in="SourceGraphic" in2="bg"/></filter><image id="image" width="2468" height="2468" xlink:href="9%20Free%20Grain%20Textures/PNG/Grain-Texture-07.png"/><mask id="mask" x="20.2" y="-119.48" width="386.44" height="375.11" maskUnits="userSpaceOnUse"><g class="cls-6"><g transform="translate(-115.22 -253.59)"><use class="cls-1" transform="translate(135.42 281.09) scale(0.05)" xlink:href="#image"/><use class="cls-1" transform="translate(146.75 134.11) scale(0.15)" xlink:href="#image"/><use class="cls-1" transform="translate(398.63 281.09) scale(0.05)" xlink:href="#image"/><use class="cls-1" transform="translate(253.39 274.89) scale(0.07)" xlink:href="#image"/></g></g></mask></defs><title>McDowell_Final</title><g id="Layer_4" data-name="Layer 4"><rect class="cls-2" width="388.61" height="194.13" rx="19.96"/></g><g id="Layer_2" data-name="Layer 2"><path class="cls-3" d="M56.87,230.69" transform="translate(-115.22 -253.59)"/><g class="cls-4"><path class="cls-5" d="M137.24,312.57h8.29l18.77,37h.4l18.4-37h8.15v48.22H183.1V321.26h-.25l-19.79,39.53h-1.67l-20-39.2h-.54v39.2h-3.6Z" transform="translate(-115.22 -253.59)"/><path class="cls-5" d="M228.78,334a18.17,18.17,0,0,0-1.09-2.94,11.17,11.17,0,0,0-1.76-2.71,8.89,8.89,0,0,0-2.53-2,7.25,7.25,0,0,0-3.42-.77,9.78,9.78,0,0,0-4.51,1,10.08,10.08,0,0,0-3.38,2.77,12.39,12.39,0,0,0-2.11,4.07,16.33,16.33,0,0,0-.73,4.95,23.91,23.91,0,0,0,.93,6.74,18.67,18.67,0,0,0,2.62,5.58,13.16,13.16,0,0,0,4.07,3.81,10.37,10.37,0,0,0,5.33,1.4,11.42,11.42,0,0,0,4.49-.82,10.7,10.7,0,0,0,3.31-2.2,14.3,14.3,0,0,0,2.42-3.22,33.68,33.68,0,0,0,1.82-3.88l2.22.91a25.8,25.8,0,0,1-2.55,6.26,18.67,18.67,0,0,1-3.76,4.67,15.14,15.14,0,0,1-4.88,2.91,17.47,17.47,0,0,1-12.75-.43,17.45,17.45,0,0,1-5.56-4,19,19,0,0,1-3.75-5.86,18.56,18.56,0,0,1-1.38-7.16,21,21,0,0,1,2.64-10.26,20.34,20.34,0,0,1,3-4.11,19.87,19.87,0,0,1,3.91-3.18,18.84,18.84,0,0,1,4.6-2.05,17.68,17.68,0,0,1,5.11-.73,17.36,17.36,0,0,1,4.25.51,16.29,16.29,0,0,1,3.75,1.43,12.26,12.26,0,0,1,3,2.3,10.36,10.36,0,0,1,2,3Z" transform="translate(-115.22 -253.59)"/><path class="cls-5" d="M246.93,312.57H263A51.57,51.57,0,0,1,275.77,314a21.73,21.73,0,0,1,8.91,4.44,23,23,0,0,1,6.13,8,23.45,23.45,0,0,1,2.06,9.85,25,25,0,0,1-1.84,9.57,22.1,22.1,0,0,1-5.38,7.8,25.7,25.7,0,0,1-8.77,5.26,34.48,34.48,0,0,1-11.95,1.92h-18Zm8.11,44.7h8.62a21.64,21.64,0,0,0,7.67-1.35,17.43,17.43,0,0,0,6.28-4,19,19,0,0,0,4.22-6.53,24.08,24.08,0,0,0,1.54-9,22.39,22.39,0,0,0-1.45-8.2,19.17,19.17,0,0,0-4.07-6.42,18.56,18.56,0,0,0-6.24-4.18,20.67,20.67,0,0,0-7.91-1.49H255Z" transform="translate(-115.22 -253.59)"/><path class="cls-5" d="M321,361.59a20.33,20.33,0,0,1-7.9-1.49,19.34,19.34,0,0,1-6.22-4.05,18.53,18.53,0,0,1-5.56-13.37,20.33,20.33,0,0,1,1.47-7.73,19.62,19.62,0,0,1,4.09-6.31,19.34,19.34,0,0,1,6.22-4.24,19.81,19.81,0,0,1,7.9-1.54,21,21,0,0,1,7.83,1.42,19,19,0,0,1,6.2,3.89,17.89,17.89,0,0,1,4.1,5.8,17.49,17.49,0,0,1,1.47,7.15,21.42,21.42,0,0,1-1.47,7.94,20.23,20.23,0,0,1-4.1,6.51,19.07,19.07,0,0,1-6.2,4.4A18.79,18.79,0,0,1,321,361.59Zm1.41-2.72a7.44,7.44,0,0,0,4-1.13,10.4,10.4,0,0,0,3.13-3,15.1,15.1,0,0,0,2-4.42,19.14,19.14,0,0,0,.73-5.31,39.34,39.34,0,0,0-.69-7.56,19.39,19.39,0,0,0-2.26-6.15,11.12,11.12,0,0,0-10.18-5.64,6.74,6.74,0,0,0-3.6,1.08,10.63,10.63,0,0,0-3.08,2.92,15.73,15.73,0,0,0-2.12,4.35,17,17,0,0,0-.81,5.29,32.69,32.69,0,0,0,.86,7.64,20.94,20.94,0,0,0,2.51,6.22,13.22,13.22,0,0,0,4,4.2A9.75,9.75,0,0,0,322.36,358.87Z" transform="translate(-115.22 -253.59)"/><path class="cls-5" d="M353,323.55l11.78,27.2,11.68-27.2,11.74,27.2,10.41-27.2h3.56L387,361.19h-2.51l-10.4-24.33-10.44,24.33h-2.29L345,323.55Z" transform="translate(-115.22 -253.59)"/><path class="cls-5" d="M425,361.59a17.88,17.88,0,0,1-7.11-1.42,18.48,18.48,0,0,1-5.8-3.85,18.05,18.05,0,0,1-3.91-5.73,17.26,17.26,0,0,1-1.43-7,25,25,0,0,1,1.31-8.27,19.37,19.37,0,0,1,3.71-6.57,17.23,17.23,0,0,1,5.76-4.33,17.64,17.64,0,0,1,7.51-1.56,17,17,0,0,1,6.69,1.29A16.68,16.68,0,0,1,437,327.6a15.66,15.66,0,0,1,3.42,5,14.86,14.86,0,0,1,1.21,5.92H413.83a24.07,24.07,0,0,0,1,7,17.41,17.41,0,0,0,2.71,5.53,12.91,12.91,0,0,0,4.14,3.64,10.88,10.88,0,0,0,5.28,1.31,13.6,13.6,0,0,0,4.62-.79,16.19,16.19,0,0,0,4-2.05,14.45,14.45,0,0,0,3.07-2.91,10.13,10.13,0,0,0,1.78-3.38l2.15.94a17.61,17.61,0,0,1-2.58,5.39,21.15,21.15,0,0,1-4.17,4.38,20.38,20.38,0,0,1-5.18,3A15.49,15.49,0,0,1,425,361.59Zm7.35-26a10.45,10.45,0,0,0-.74-3.93,9.63,9.63,0,0,0-5.11-5.23,9.29,9.29,0,0,0-3.75-.77,7.16,7.16,0,0,0-3.2.75,9.06,9.06,0,0,0-2.73,2.07,11.4,11.4,0,0,0-2,3.15,12,12,0,0,0-.93,3.93Z" transform="translate(-115.22 -253.59)"/><path class="cls-5" d="M460.5,360.79h-7.42V306.67l5.27-2.11h2.15Z" transform="translate(-115.22 -253.59)"/><path class="cls-5" d="M481,360.79h-7.42V306.67l5.28-2.11H481Z" transform="translate(-115.22 -253.59)"/><path class="cls-5" d="M245.06,379.17h6.78a10.08,10.08,0,0,1,2.47.29,6.31,6.31,0,0,1,1.93.85,4.1,4.1,0,0,1,1.25,1.31,3.28,3.28,0,0,1,.44,1.67,5.25,5.25,0,0,1-.14,1.25,2.75,2.75,0,0,1-.49,1,4.27,4.27,0,0,1-.95.88,10.23,10.23,0,0,1-1.49.85v.05a5.68,5.68,0,0,1,1.62.48,4.18,4.18,0,0,1,1.24.87,3.61,3.61,0,0,1,.79,1.23,4.06,4.06,0,0,1,.28,1.54,3.92,3.92,0,0,1-.41,1.79,4.26,4.26,0,0,1-1.18,1.44,5.7,5.7,0,0,1-1.85,1,7.75,7.75,0,0,1-2.43.36h-7.86Zm2.83,7.58h3.6a4.16,4.16,0,0,0,1.51-.25,3.26,3.26,0,0,0,1.12-.66,2.72,2.72,0,0,0,.69-1,3.34,3.34,0,0,0,.24-1.27,3.06,3.06,0,0,0-.28-1.34,2.7,2.7,0,0,0-.87-1,4.15,4.15,0,0,0-1.5-.66,9.11,9.11,0,0,0-2.18-.23h-2.33Zm0,8H251a8.47,8.47,0,0,0,2.14-.24,4.18,4.18,0,0,0,1.49-.66,2.59,2.59,0,0,0,.88-1,3,3,0,0,0,.29-1.31,4.22,4.22,0,0,0-.26-1.48,2.86,2.86,0,0,0-.83-1.19,4.14,4.14,0,0,0-1.51-.79,7.6,7.6,0,0,0-2.29-.29h-3Z" transform="translate(-115.22 -253.59)"/><path class="cls-5" d="M270.78,396.39a9.38,9.38,0,0,1-6.6-2.6,9.1,9.1,0,0,1-2-2.84,8.7,8.7,0,0,1-.39-5.78,8.45,8.45,0,0,1,.92-2.08,8.94,8.94,0,0,1,1.44-1.76,9.33,9.33,0,0,1,4.1-2.23,10.24,10.24,0,0,1,5,0,9.84,9.84,0,0,1,2.23.87,9,9,0,0,1,1.87,1.36,8.94,8.94,0,0,1,1.44,1.76,8.18,8.18,0,0,1,1.25,4.4,8.52,8.52,0,0,1-1.25,4.49,9,9,0,0,1-3.31,3.19,9.94,9.94,0,0,1-2.23.91A9.79,9.79,0,0,1,270.78,396.39Zm0-.83a5.32,5.32,0,0,0,2.56-.61,5.45,5.45,0,0,0,1.87-1.68,7.84,7.84,0,0,0,1.15-2.55,12.61,12.61,0,0,0,.38-3.23,12.16,12.16,0,0,0-.38-3.18,7.48,7.48,0,0,0-1.15-2.5,5.27,5.27,0,0,0-1.87-1.62,5.43,5.43,0,0,0-2.56-.58,5.52,5.52,0,0,0-2.59.58,5.16,5.16,0,0,0-1.86,1.62,7.47,7.47,0,0,0-1.14,2.5,12.6,12.6,0,0,0-.38,3.18,13.07,13.07,0,0,0,.38,3.23,7.83,7.83,0,0,0,1.14,2.55,5.33,5.33,0,0,0,1.86,1.68A5.41,5.41,0,0,0,270.78,395.56Z" transform="translate(-115.22 -253.59)"/><path class="cls-5" d="M283.63,379.17h2.83V390.1a5.61,5.61,0,0,0,.36,2,5.07,5.07,0,0,0,1.06,1.66,5,5,0,0,0,1.66,1.12,5.92,5.92,0,0,0,4.33,0,4.88,4.88,0,0,0,2.69-2.78,5.61,5.61,0,0,0,.36-2V379.17h1.24V390.1a7,7,0,0,1-.42,2.43,5.12,5.12,0,0,1-1.31,2,6.23,6.23,0,0,1-2.29,1.36,9.81,9.81,0,0,1-3.35.5,8.62,8.62,0,0,1-3.08-.5,6.45,6.45,0,0,1-2.25-1.36,5.61,5.61,0,0,1-1.37-2,6.59,6.59,0,0,1-.46-2.48Z" transform="translate(-115.22 -253.59)"/><path class="cls-5" d="M315.69,379.17v1.09H309.6V396h-2.83V380.26h-6.09v-1.09Z" transform="translate(-115.22 -253.59)"/><path class="cls-5" d="M318.46,379.17h2.83V396h-2.83Z" transform="translate(-115.22 -253.59)"/><path class="cls-5" d="M343.37,401.27a13.65,13.65,0,0,1-2.46-.23,17.11,17.11,0,0,1-4.55-1.54,18.64,18.64,0,0,1-1.94-1.11,14.92,14.92,0,0,1-1.59-1.18,10.88,10.88,0,0,1-1.18-1.16,7.61,7.61,0,0,1-2.63-1.22,9,9,0,0,1-2.06-2,9.55,9.55,0,0,1-1.35-2.54,8.37,8.37,0,0,1-.48-2.77,8.27,8.27,0,0,1,.7-3.39,8.46,8.46,0,0,1,1.92-2.76,9.26,9.26,0,0,1,2.91-1.87,10.08,10.08,0,0,1,7.28,0,9.21,9.21,0,0,1,2.9,1.87,8.46,8.46,0,0,1,2.63,6.15,8.19,8.19,0,0,1-.52,2.88,9.87,9.87,0,0,1-1.44,2.6,9,9,0,0,1-2.2,2,7.76,7.76,0,0,1-2.8,1.15,5.69,5.69,0,0,0,.94,1.68,7.69,7.69,0,0,0,1.56,1.5,8.48,8.48,0,0,0,2,1.08,6.86,6.86,0,0,0,2.34.41Zm-9.06-5.71a6.82,6.82,0,0,0,2.53-.78,6,6,0,0,0,1.87-1.67,7.32,7.32,0,0,0,1.16-2.45,11.5,11.5,0,0,0,.4-3.17,12.15,12.15,0,0,0-.39-3.18,7.49,7.49,0,0,0-1.16-2.5,5.19,5.19,0,0,0-1.87-1.62,5.37,5.37,0,0,0-2.54-.58,5.47,5.47,0,0,0-2.59.58,5.11,5.11,0,0,0-1.87,1.62,7.45,7.45,0,0,0-1.13,2.5,12.6,12.6,0,0,0-.38,3.18,13.07,13.07,0,0,0,.38,3.23,7.82,7.82,0,0,0,1.13,2.55,5.28,5.28,0,0,0,1.87,1.68A5.36,5.36,0,0,0,334.31,395.56Z" transform="translate(-115.22 -253.59)"/><path class="cls-5" d="M347,379.17h2.83V390.1a5.41,5.41,0,0,0,.37,2,4.88,4.88,0,0,0,1,1.66,5,5,0,0,0,1.66,1.12,5.92,5.92,0,0,0,4.33,0,4.92,4.92,0,0,0,1.65-1.12,5,5,0,0,0,1-1.66,5.61,5.61,0,0,0,.36-2V379.17h1.24V390.1a7,7,0,0,1-.42,2.43,5.12,5.12,0,0,1-1.31,2,6.23,6.23,0,0,1-2.29,1.36,9.81,9.81,0,0,1-3.35.5,8.62,8.62,0,0,1-3.08-.5,6.54,6.54,0,0,1-2.25-1.36,5.74,5.74,0,0,1-1.37-2A6.59,6.59,0,0,1,347,390Z" transform="translate(-115.22 -253.59)"/><path class="cls-5" d="M377.57,379.17v1.09H368.7v6h5.94v1.09H368.7v7.54h8.87V396h-11.7V379.17Z" transform="translate(-115.22 -253.59)"/></g></g></svg>